<svg width="58" height="58" viewBox="0 0 58 58" fill="none" xmlns="http://www.w3.org/2000/svg">
<circle cx="29" cy="29" r="29" fill="#CF97C6"/>
<g filter="url(#filter0_d_348_2)">
<path d="M23.7067 39.3767C23.7067 39.5174 23.5444 39.6298 23.3397 39.6298C23.1069 39.6509 22.9446 39.5385 22.9446 39.3767C22.9446 39.2361 23.1069 39.1236 23.3115 39.1236C23.5232 39.1026 23.7067 39.215 23.7067 39.3767ZM21.5121 39.0604C21.4627 39.201 21.6038 39.3627 21.8155 39.4049C21.999 39.4752 22.2107 39.4049 22.253 39.2643C22.2954 39.1236 22.1613 38.962 21.9496 38.8987C21.7661 38.8495 21.5615 38.9198 21.5121 39.0604ZM24.631 38.9409C24.4264 38.9901 24.2853 39.1237 24.3065 39.2854C24.3276 39.426 24.5111 39.5174 24.7228 39.4681C24.9274 39.4189 25.0685 39.2854 25.0474 39.1447C25.0262 39.0112 24.8357 38.9198 24.631 38.9409ZM29.2742 12C19.4869 12 12 19.4031 12 29.1544C12 36.9512 16.9254 43.6232 23.9607 45.9714C24.8639 46.1331 25.1815 45.5776 25.1815 45.1207C25.1815 44.6848 25.1603 42.2803 25.1603 40.8039C25.1603 40.8039 20.2208 41.8585 19.1835 38.7089C19.1835 38.7089 18.379 36.663 17.2218 36.1357C17.2218 36.1357 15.6058 35.0319 17.3347 35.053C17.3347 35.053 19.0917 35.1936 20.0585 36.8669C21.6038 39.5806 24.1935 38.8002 25.2026 38.3362C25.3649 37.2114 25.8236 36.431 26.3317 35.967C22.3871 35.5311 18.4073 34.9616 18.4073 28.1983C18.4073 26.2649 18.9435 25.2947 20.0726 24.0573C19.8891 23.6003 19.2893 21.7161 20.256 19.2836C21.7308 18.8266 25.125 21.1818 25.125 21.1818C26.5363 20.7881 28.0534 20.5842 29.5565 20.5842C31.0595 20.5842 32.5766 20.7881 33.9879 21.1818C33.9879 21.1818 37.3821 18.8196 38.8569 19.2836C39.8236 21.7232 39.2238 23.6003 39.0403 24.0573C40.1694 25.3017 40.8609 26.2719 40.8609 28.1983C40.8609 34.9827 36.7046 35.524 32.7601 35.967C33.4093 36.5224 33.9597 37.5769 33.9597 39.2291C33.9597 41.5984 33.9385 44.5301 33.9385 45.1066C33.9385 45.5636 34.2631 46.119 35.1593 45.9573C42.2157 43.6232 47 36.9512 47 29.1544C47 19.4031 39.0615 12 29.2742 12ZM18.8589 36.2482C18.7671 36.3185 18.7883 36.4802 18.9083 36.6138C19.0212 36.7263 19.1835 36.7755 19.2752 36.6841C19.3669 36.6138 19.3458 36.4521 19.2258 36.3185C19.1129 36.206 18.9506 36.1568 18.8589 36.2482ZM18.0968 35.6787C18.0474 35.7701 18.1179 35.8826 18.2591 35.9529C18.372 36.0232 18.5131 36.0021 18.5625 35.9037C18.6119 35.8123 18.5413 35.6998 18.4002 35.6295C18.2591 35.5873 18.1462 35.6084 18.0968 35.6787ZM20.3831 38.1816C20.2702 38.273 20.3125 38.4839 20.4748 38.6175C20.6371 38.7792 20.8417 38.8002 20.9335 38.6878C21.0252 38.5964 20.9829 38.3854 20.8417 38.2519C20.6865 38.0902 20.4748 38.0691 20.3831 38.1816ZM19.5786 37.1481C19.4657 37.2184 19.4657 37.4012 19.5786 37.5629C19.6915 37.7246 19.8821 37.7949 19.9738 37.7246C20.0867 37.6332 20.0867 37.4504 19.9738 37.2887C19.875 37.127 19.6915 37.0567 19.5786 37.1481Z" fill="white"/>
</g>
<defs>
<filter id="filter0_d_348_2" x="8" y="12" width="43" height="42" filterUnits="userSpaceOnUse" color-interpolation-filters="sRGB">
<feFlood flood-opacity="0" result="BackgroundImageFix"/>
<feColorMatrix in="SourceAlpha" type="matrix" values="0 0 0 0 0 0 0 0 0 0 0 0 0 0 0 0 0 0 127 0" result="hardAlpha"/>
<feOffset dy="4"/>
<feGaussianBlur stdDeviation="2"/>
<feComposite in2="hardAlpha" operator="out"/>
<feColorMatrix type="matrix" values="0 0 0 0 0 0 0 0 0 0 0 0 0 0 0 0 0 0 0.25 0"/>
<feBlend mode="normal" in2="BackgroundImageFix" result="effect1_dropShadow_348_2"/>
<feBlend mode="normal" in="SourceGraphic" in2="effect1_dropShadow_348_2" result="shape"/>
</filter>
</defs>
</svg>
