<svg width="58" height="58" viewBox="0 0 58 58" fill="none" xmlns="http://www.w3.org/2000/svg">
<circle cx="29" cy="29" r="29" fill="#FFB834"/>
<g filter="url(#filter0_d_348_5)">
<path d="M29.5035 21.552C25.105 21.552 21.5572 25.1006 21.5572 29.5C21.5572 33.8994 25.105 37.448 29.5035 37.448C33.9019 37.448 37.4497 33.8994 37.4497 29.5C37.4497 25.1006 33.9019 21.552 29.5035 21.552ZM29.5035 34.6672C26.6611 34.6672 24.3374 32.3499 24.3374 29.5C24.3374 26.6501 26.6542 24.3328 29.5035 24.3328C32.3528 24.3328 34.6695 26.6501 34.6695 29.5C34.6695 32.3499 32.3458 34.6672 29.5035 34.6672ZM39.6282 21.2269C39.6282 22.2576 38.7983 23.0807 37.7747 23.0807C36.7443 23.0807 35.9213 22.2506 35.9213 21.2269C35.9213 20.2031 36.7512 19.373 37.7747 19.373C38.7983 19.373 39.6282 20.2031 39.6282 21.2269ZM44.8911 23.1084C44.7735 20.6251 44.2064 18.4254 42.3876 16.613C40.5756 14.8007 38.3764 14.2335 35.8936 14.1089C33.3348 13.9637 25.6652 13.9637 23.1064 14.1089C20.6305 14.2265 18.4313 14.7938 16.6124 16.6061C14.7936 18.4184 14.2334 20.6182 14.1089 23.1015C13.9637 25.6609 13.9637 33.3322 14.1089 35.8916C14.2265 38.3749 14.7936 40.5746 16.6124 42.387C18.4313 44.1993 20.6236 44.7665 23.1064 44.8911C25.6652 45.0363 33.3348 45.0363 35.8936 44.8911C38.3764 44.7735 40.5756 44.2062 42.3876 42.387C44.1995 40.5746 44.7666 38.3749 44.8911 35.8916C45.0363 33.3322 45.0363 25.6678 44.8911 23.1084ZM41.5853 38.6378C41.0459 39.9936 40.0016 41.0381 38.6392 41.5846C36.5991 42.3939 31.758 42.2071 29.5035 42.2071C27.2489 42.2071 22.4009 42.387 20.3677 41.5846C19.0122 41.045 17.9679 40.0005 17.4216 38.6378C16.6124 36.5972 16.7992 31.755 16.7992 29.5C16.7992 27.245 16.6194 22.3959 17.4216 20.3622C17.961 19.0064 19.0053 17.9619 20.3677 17.4154C22.4079 16.6061 27.2489 16.7929 29.5035 16.7929C31.758 16.7929 36.606 16.613 38.6392 17.4154C39.9947 17.955 41.039 18.9995 41.5853 20.3622C42.3945 22.4028 42.2078 27.245 42.2078 29.5C42.2078 31.755 42.3945 36.6041 41.5853 38.6378Z" fill="white"/>
</g>
<defs>
<filter id="filter0_d_348_5" x="10" y="14" width="39" height="39" filterUnits="userSpaceOnUse" color-interpolation-filters="sRGB">
<feFlood flood-opacity="0" result="BackgroundImageFix"/>
<feColorMatrix in="SourceAlpha" type="matrix" values="0 0 0 0 0 0 0 0 0 0 0 0 0 0 0 0 0 0 127 0" result="hardAlpha"/>
<feOffset dy="4"/>
<feGaussianBlur stdDeviation="2"/>
<feComposite in2="hardAlpha" operator="out"/>
<feColorMatrix type="matrix" values="0 0 0 0 0 0 0 0 0 0 0 0 0 0 0 0 0 0 0.25 0"/>
<feBlend mode="normal" in2="BackgroundImageFix" result="effect1_dropShadow_348_5"/>
<feBlend mode="normal" in="SourceGraphic" in2="effect1_dropShadow_348_5" result="shape"/>
</filter>
</defs>
</svg>
