<svg width="58" height="58" viewBox="0 0 58 58" fill="none" xmlns="http://www.w3.org/2000/svg">
<circle cx="29" cy="29" r="29" fill="#FFB834"/>
<g filter="url(#filter0_d_348_6)">
<path d="M21.2675 43H15.4625V24.3058H21.2675V43ZM18.3619 21.7558C16.5056 21.7558 15 20.2182 15 18.3619C15 17.4703 15.3542 16.6152 15.9847 15.9847C16.6151 15.3542 17.4703 15 18.3619 15C19.2535 15 20.1086 15.3542 20.7391 15.9847C21.3696 16.6152 21.7238 17.4703 21.7238 18.3619C21.7238 20.2182 20.2175 21.7558 18.3619 21.7558ZM42.9937 43H37.2013V33.8998C37.2013 31.731 37.1575 28.9497 34.1831 28.9497C31.165 28.9497 30.7025 31.306 30.7025 33.7435V43H24.9038V24.3058H30.4712V26.8559H30.5525C31.3275 25.3871 33.2206 23.8371 36.045 23.8371C41.92 23.8371 43 27.7059 43 32.731V43H42.9937Z" fill="white"/>
</g>
<defs>
<filter id="filter0_d_348_6" x="11" y="15" width="36" height="36" filterUnits="userSpaceOnUse" color-interpolation-filters="sRGB">
<feFlood flood-opacity="0" result="BackgroundImageFix"/>
<feColorMatrix in="SourceAlpha" type="matrix" values="0 0 0 0 0 0 0 0 0 0 0 0 0 0 0 0 0 0 127 0" result="hardAlpha"/>
<feOffset dy="4"/>
<feGaussianBlur stdDeviation="2"/>
<feComposite in2="hardAlpha" operator="out"/>
<feColorMatrix type="matrix" values="0 0 0 0 0 0 0 0 0 0 0 0 0 0 0 0 0 0 0.25 0"/>
<feBlend mode="normal" in2="BackgroundImageFix" result="effect1_dropShadow_348_6"/>
<feBlend mode="normal" in="SourceGraphic" in2="effect1_dropShadow_348_6" result="shape"/>
</filter>
</defs>
</svg>
